<svg width="50" height="50" viewBox="0 0 50 50" fill="none" xmlns="http://www.w3.org/2000/svg">
<g clip-path="url(#clip0_1_224)">
<path fill-rule="evenodd" clip-rule="evenodd" d="M45.5379 15.254L43.8986 16.9593C40.3467 13.7387 35.7923 11.9374 31.057 11.9374C27.8689 11.9374 24.6824 12.7901 21.9501 14.3054L28.8712 7.10561C29.4177 7.48399 30.0546 7.67406 30.6933 7.67406C31.6035 7.67406 32.5154 7.29569 33.2428 6.53716C34.6995 5.02189 34.6995 2.65217 33.2428 1.1369C32.5137 0.378374 31.6035 0 30.6933 0C29.7831 0 28.8712 0.378374 28.1438 1.1369C26.9604 2.46387 26.7777 4.35752 27.5973 5.77864L18.8542 14.8738L17.2148 13.1685L12.7527 17.8102L14.3921 19.5156L5.46619 28.8008C4.91974 28.4224 4.28279 28.2324 3.64413 28.2324C2.73395 28.2324 1.82206 28.6107 1.09461 29.3693C-0.36202 30.8845 -0.36202 33.2543 1.09461 34.7695C1.82377 35.4321 2.73395 35.8123 3.64413 35.8123C4.5543 35.8123 5.46619 35.4339 6.19365 34.6754C7.37705 33.4443 7.55977 31.5489 6.7401 30.0336L13.6612 22.8339C10.0188 30.1296 10.8385 39.2247 16.2107 45.666L14.5714 47.4655L19.1257 52.1072L23.5878 47.4655L19.1257 42.8237L17.5768 44.4349C12.2951 37.9919 12.0219 28.7084 16.4839 21.8871L17.2131 22.6456L21.7674 18.0038L20.9477 17.2453C23.8627 15.0657 27.4146 13.9288 31.057 13.9288C35.3381 13.9288 39.3443 15.54 42.623 18.3822L40.9836 19.9934L45.5379 24.6352L50 19.9934L45.5379 15.2557V15.254ZM21.0383 47.4655L19.1257 49.455L17.2131 47.4655L19.1257 45.4759L21.0383 47.4655V47.4655ZM29.4177 2.55814C29.7814 2.17976 30.2374 1.98969 30.6933 1.98969C31.1493 1.98969 31.6035 2.17976 31.9689 2.55814C32.6981 3.31666 32.6981 4.45356 31.9689 5.21031C31.6052 5.58868 31.1493 5.77875 30.6933 5.77875C30.2374 5.77875 29.7831 5.58868 29.4177 5.21031C28.6885 4.54771 28.6885 3.31488 29.4177 2.55814V2.55814ZM4.91801 33.3485C4.55428 33.7269 4.09834 33.9169 3.6424 33.9169C3.18645 33.9169 2.73222 33.7269 2.36678 33.3485C2.00305 33.0643 1.82033 32.59 1.82033 32.0215C1.82033 31.5472 2.00305 31.0747 2.36678 30.6945C2.73051 30.3144 3.18645 30.1261 3.6424 30.1261C4.09834 30.1261 4.55257 30.3162 4.91801 30.6945C5.64718 31.4531 5.64718 32.6841 4.91801 33.3467V33.3485ZM17.1226 19.9899L15.2101 18.0003L17.1226 16.0108L19.0352 18.0003L17.1226 19.9899V19.9899ZM45.5379 21.9793L43.6253 19.9898L45.5379 18.0002L47.4505 19.9898L45.5379 21.9793V21.9793Z" fill="#333333"/>
</g>
<defs>
<clipPath id="clip0_1_224">
<rect width="50" height="50" fill="white"/>
</clipPath>
</defs>
</svg>
